<svg xmlns="http://www.w3.org/2000/svg" xmlns:xlink="http://www.w3.org/1999/xlink" width="200" zoomAndPan="magnify" viewBox="0 0 150 149.999998" height="200" preserveAspectRatio="xMidYMid meet" version="1.0"><defs><clipPath id="6630ef1b25"><path d="M 37.570312 2.832031 L 111.820312 2.832031 L 111.820312 146.832031 L 37.570312 146.832031 Z M 37.570312 2.832031 " clip-rule="nonzero"/></clipPath></defs><g clip-path="url(#6630ef1b25)"><path fill="#000000" d="M 111.734375 68.5 C 111.640625 68.1875 111.402344 67.980469 111.1875 67.746094 C 111.671875 67.527344 111.6875 67.367188 111.308594 67.019531 C 110.714844 66.476562 109.996094 66.136719 109.304688 65.753906 C 108.851562 65.503906 108.320312 65.375 107.984375 64.933594 C 107.890625 64.8125 105.730469 64.910156 102.84375 63.179688 C 101.867188 62.589844 101.160156 61.714844 100.417969 60.886719 C 95.925781 55.867188 92.734375 50.472656 89.894531 47.335938 C 89.160156 46.527344 88.9375 45.527344 88.808594 44.476562 C 88.488281 41.882812 88.269531 39.277344 88.15625 36.667969 C 88.144531 36.421875 88.046875 36.082031 88.167969 35.957031 C 88.28125 35.835938 88.609375 36.046875 88.71875 36.097656 C 89.832031 36.605469 91.167969 35.550781 90.921875 34.230469 C 90.628906 35.898438 89.046875 36.234375 88.347656 35.296875 C 88.082031 34.9375 88.070312 33.628906 88.070312 32.722656 C 88.132812 31.976562 87.730469 29.046875 87.59375 28.488281 C 87.460938 27.9375 87.269531 27.398438 87.011719 26.886719 C 86.441406 25.777344 85.75 24.796875 84.449219 24.453125 C 83.898438 24.304688 83.34375 24.167969 82.773438 24.132812 C 81.375 24.042969 81.015625 23.847656 79.695312 23.335938 C 79.03125 23.078125 78.601562 22.621094 78.378906 21.960938 C 78.195312 21.414062 78.109375 20.851562 78.101562 20.28125 C 78.085938 19.199219 78.464844 18.921875 79.515625 19.210938 C 80.019531 19.351562 80.527344 19.476562 81.03125 19.621094 C 82.007812 19.902344 82.144531 18.789062 82.695312 18.105469 C 83.089844 17.617188 82.355469 17.269531 83.089844 16.988281 C 83.929688 16.667969 82.554688 16.324219 83.347656 15.941406 C 83.546875 15.847656 83.675781 15.710938 83.574219 15.460938 C 83.507812 15.300781 83.304688 15.125 83.398438 14.992188 C 83.460938 14.902344 83.730469 14.960938 83.902344 14.9375 C 84.34375 14.867188 84.433594 14.679688 84.210938 14.292969 C 84.082031 14.074219 83.953125 13.84375 83.78125 13.65625 C 83.363281 13.203125 83.199219 12.671875 83.164062 12.070312 C 83.148438 11.765625 83.128906 11.527344 83.511719 11.445312 C 83.679688 11.40625 83.710938 11.21875 83.605469 11.199219 C 83.34375 11.152344 83.429688 11.023438 83.507812 10.890625 C 83.738281 10.503906 83.8125 10.082031 83.804688 9.636719 C 83.800781 9.527344 83.765625 9.390625 83.945312 9.269531 C 84.003906 9.871094 83.917969 10.433594 83.863281 11.039062 C 84.628906 10.570312 84.464844 10.324219 84.71875 8.253906 C 84.960938 8.804688 85.03125 9.367188 84.847656 9.949219 C 85.109375 9.804688 85.136719 9.523438 85.234375 9.28125 C 85.257812 9.222656 85.210938 9.105469 85.339844 9.113281 C 85.550781 9.132812 85.554688 9.136719 85.59375 8.949219 C 85.738281 8.265625 85.542969 7.65625 85.140625 7.125 C 83.207031 4.585938 80.078125 3.25 76.957031 2.976562 C 75.410156 2.84375 73.878906 2.886719 72.460938 3.578125 C 71.042969 4.265625 69.933594 5.417969 69.136719 6.761719 C 67.542969 9.453125 67.613281 12.949219 65.574219 15.550781 C 65.042969 16.226562 64.488281 16.917969 63.613281 17.164062 C 61.902344 17.652344 61.871094 17.183594 61.53125 15.179688 C 61.425781 15.964844 61.570312 16.707031 61.890625 17.429688 C 61.644531 17.464844 61.445312 17.398438 61.273438 17.273438 C 60.519531 16.71875 59.859375 16.101562 59.757812 15.085938 C 59.71875 17.609375 61.730469 18.46875 63.710938 17.816406 C 63.917969 17.621094 64.082031 17.382812 64.324219 17.222656 C 64.335938 17.183594 64.351562 17.15625 64.394531 17.164062 C 64.253906 17.398438 64.15625 17.546875 63.742188 17.851562 C 62.34375 19.339844 60.574219 19.523438 59.160156 21.492188 C 58.175781 22.867188 58.011719 24.40625 58.25 26.03125 C 58.398438 27.050781 58.636719 28.042969 59.542969 28.648438 C 60.242188 29.113281 60.453125 29.6875 60.269531 30.464844 C 60.261719 30.496094 60.269531 30.53125 60.265625 30.566406 C 60.132812 31.648438 59.75 33 58.667969 32.839844 C 58.320312 32.789062 58.140625 32.539062 58.054688 32.210938 C 57.738281 31 58.898438 31.101562 59.9375 29.824219 C 59.316406 30.050781 58.84375 30.359375 58.382812 30.695312 C 57.671875 31.207031 57.382812 31.890625 57.484375 32.757812 C 57.613281 33.875 58.382812 33.863281 59.222656 33.988281 C 58.90625 34.050781 58.597656 34.0625 58.292969 34.046875 C 58.074219 34.035156 57.878906 33.945312 57.75 33.753906 C 56.578125 32.015625 57.335938 30.972656 57.417969 30.332031 C 56.925781 30.875 56.765625 31.523438 56.878906 32.238281 C 56.992188 32.9375 57.183594 33.617188 57.933594 34.070312 C 56.363281 33.953125 55.480469 32.9375 55.710938 31.632812 L 55.707031 31.636719 C 55.535156 31.800781 55.582031 32.011719 55.601562 32.203125 C 55.773438 33.988281 57.578125 35.019531 59.28125 34.960938 C 59.921875 34.9375 60.5 35.085938 60.984375 35.527344 C 61.429688 35.933594 61.390625 37.28125 61.046875 37.75 C 60.347656 38.691406 58.765625 38.355469 58.472656 36.683594 C 58.226562 38.007812 59.5625 39.0625 60.675781 38.550781 C 60.785156 38.503906 61.113281 38.292969 61.226562 38.410156 C 61.347656 38.539062 61.25 38.875 61.238281 39.121094 C 61.125 41.734375 60.90625 44.335938 60.585938 46.929688 C 60.457031 47.980469 60.234375 48.980469 59.5 49.792969 C 56.660156 52.925781 53.46875 58.324219 48.976562 63.339844 C 48.234375 64.171875 47.527344 65.046875 46.550781 65.632812 C 43.664062 67.367188 41.5 67.265625 41.410156 67.386719 C 41.074219 67.832031 40.542969 67.957031 40.089844 68.207031 C 39.394531 68.589844 38.679688 68.933594 38.085938 69.472656 C 37.707031 69.820312 37.722656 69.980469 38.207031 70.199219 C 37.992188 70.433594 37.753906 70.644531 37.660156 70.953125 C 37.570312 71.238281 37.640625 71.453125 37.960938 71.496094 C 39.519531 71.707031 39.667969 71.160156 40.21875 70.5625 C 40.816406 69.90625 40.773438 70.089844 43.433594 69.734375 C 43.882812 69.675781 44.324219 69.539062 44.785156 69.621094 C 45.324219 69.714844 45.84375 69.621094 46.300781 69.34375 C 47.464844 68.632812 48.507812 67.777344 49.226562 66.589844 C 49.515625 66.113281 49.875 65.714844 50.300781 65.363281 C 56.179688 60.511719 60.074219 56.621094 63.617188 52.496094 C 65.644531 50.136719 65.160156 48.5 66.601562 40.28125 C 66.621094 40.167969 66.554688 39.992188 66.710938 39.964844 C 66.871094 39.933594 66.921875 40.113281 66.980469 40.226562 C 67.394531 41.003906 67.722656 41.824219 68.035156 42.648438 C 68.601562 44.160156 69.015625 45.695312 69.023438 47.339844 C 69.027344 48.480469 68.679688 49.429688 67.949219 50.277344 C 67.53125 50.757812 67.113281 51.238281 66.660156 51.6875 C 48.746094 69.621094 47.453125 71.117188 43.792969 73.996094 C 42.164062 75.277344 40.722656 76.761719 39.199219 78.160156 C 39.003906 78.34375 38.839844 78.558594 38.660156 78.753906 C 38.539062 78.882812 38.515625 79.023438 38.585938 79.1875 C 39.09375 80.335938 39.738281 81.40625 40.773438 82.144531 C 41.722656 82.832031 42.367188 83.703125 42.703125 84.800781 C 43.074219 86.011719 43.792969 86.9375 44.867188 87.601562 C 46.539062 88.632812 48.296875 89.15625 50.253906 88.503906 C 51.261719 88.171875 52.28125 87.886719 53.351562 87.828125 C 53.964844 87.796875 56.6875 86.609375 57.128906 87.195312 C 57.964844 88.304688 58.960938 88.351562 59.722656 89.492188 C 60.308594 90.367188 61.085938 91.011719 61.992188 91.523438 C 62.1875 91.632812 62.304688 91.597656 62.414062 91.4375 C 62.996094 90.554688 64.085938 89.808594 64.101562 88.933594 C 64.601562 90.566406 64.691406 92.214844 65.078125 93.878906 C 66.371094 99.441406 68.167969 104.125 66.890625 108.832031 C 66.429688 110.523438 66.273438 112.230469 66.535156 113.972656 C 66.921875 116.550781 67.488281 119.089844 68.1875 121.597656 C 71.371094 133.027344 70.617188 133.429688 72 136.265625 C 72.046875 136.367188 72.027344 136.453125 71.988281 136.554688 C 71.792969 137.066406 71.910156 137.394531 72.398438 137.652344 C 72.667969 137.792969 72.539062 137.515625 72.277344 142.105469 C 72.246094 142.628906 72.175781 143.15625 72.3125 143.675781 C 72.464844 144.25 72.605469 144.859375 73.101562 145.230469 C 74.753906 146.46875 77.222656 146.828125 77.414062 144.328125 C 77.472656 143.539062 77.578125 142.730469 77.46875 141.957031 C 77.371094 141.25 77.460938 140.582031 77.496094 139.898438 C 77.59375 137.984375 76.914062 137.675781 77.152344 137.066406 C 77.542969 136.078125 77.4375 135.097656 77.167969 134.109375 C 77.070312 133.757812 77.019531 133.40625 77.242188 133.078125 C 77.472656 132.730469 77.519531 132.34375 77.453125 131.949219 C 77.40625 131.675781 77.425781 131.421875 77.523438 131.164062 C 77.886719 130.207031 77.449219 129.402344 77.671875 128.914062 C 78.515625 127.082031 79.140625 123.101562 79.796875 120.863281 C 80.933594 116.96875 81.898438 113.035156 82.238281 108.972656 C 82.65625 104.023438 80.023438 103.597656 82.53125 98.230469 C 83.363281 96.457031 83.550781 94.460938 84.109375 92.585938 C 84.191406 92.320312 84.191406 91.929688 84.367188 91.816406 C 84.59375 91.675781 84.882812 91.972656 85.136719 92.09375 C 86.125 92.5625 87.125 92.574219 88.113281 92.144531 C 88.375 92.03125 88.480469 92.054688 88.65625 92.253906 C 88.875 92.5 89.128906 92.863281 89.472656 92.9375 C 89.84375 93.019531 90.253906 92.765625 90.574219 92.617188 C 90.585938 92.65625 90.582031 92.699219 90.570312 92.738281 C 90.695312 92.632812 90.855469 92.574219 91.011719 92.519531 C 92.730469 91.914062 94.488281 91.507812 96.320312 91.605469 C 96.773438 91.628906 97.230469 91.679688 97.667969 91.582031 C 98.371094 91.425781 98.882812 90.933594 99.421875 90.5 C 100.046875 90 100.667969 89.492188 101.273438 88.960938 C 102.507812 87.878906 103.695312 86.722656 104.644531 85.378906 C 106.125 83.28125 104.585938 81.945312 104.644531 79.402344 C 104.351562 79.117188 104.054688 78.835938 103.757812 78.554688 C 102.273438 77.152344 100.746094 75.792969 99.25 74.398438 C 97.75 73.003906 96.277344 71.578125 94.914062 70.050781 C 93.871094 68.878906 87.902344 58.476562 87.996094 58.378906 C 87.785156 58.023438 87.585938 57.664062 87.398438 57.300781 C 87.222656 56.964844 87.078125 56.617188 86.890625 56.289062 C 86.511719 55.605469 86.066406 54.960938 85.632812 54.3125 C 85.1875 53.644531 83.933594 51.453125 83.871094 51.347656 C 83.265625 50.394531 82.886719 49.539062 82.972656 48.4375 C 83.078125 47.011719 83.316406 45.605469 83.601562 44.203125 C 83.636719 44.023438 83.667969 43.847656 83.695312 43.683594 C 84.171875 47.101562 84.363281 48.398438 85.777344 50.042969 C 89.320312 54.167969 93.214844 58.058594 99.09375 62.910156 C 99.519531 63.261719 99.878906 63.660156 100.167969 64.136719 C 100.886719 65.324219 101.929688 66.179688 103.09375 66.890625 C 103.550781 67.167969 104.070312 67.261719 104.609375 67.167969 C 105.070312 67.085938 105.511719 67.222656 105.960938 67.28125 C 108.621094 67.636719 108.578125 67.453125 109.175781 68.109375 C 109.726562 68.707031 109.875 69.253906 111.433594 69.042969 C 111.753906 69 111.824219 68.785156 111.734375 68.5 Z M 58.449219 23.925781 C 58.53125 25.023438 58.957031 25.960938 59.386719 26.925781 C 58.796875 26.519531 58.207031 24.652344 58.449219 23.925781 Z M 60.199219 28.261719 C 59.746094 27.921875 59.203125 27.675781 58.988281 27.078125 C 59.335938 27.53125 59.898438 27.753906 60.195312 28.257812 C 60.253906 28.269531 60.253906 28.269531 60.199219 28.261719 Z M 64.40625 17.15625 C 64.421875 17.097656 64.464844 17.121094 64.503906 17.132812 C 64.46875 17.140625 64.4375 17.148438 64.40625 17.15625 Z M 64.507812 17.089844 C 64.492188 17.058594 64.460938 17.027344 64.511719 16.996094 C 64.511719 17.027344 64.507812 17.058594 64.507812 17.089844 Z M 64.507812 17.089844 " fill-opacity="1" fill-rule="nonzero"/></g></svg>